<?xml version="1.0" encoding="UTF-8" standalone="no"?>
<!-- Created with Inkscape (http://www.inkscape.org/) -->

<svg
   xmlns:dc="http://purl.org/dc/elements/1.1/"
   xmlns:cc="http://creativecommons.org/ns#"
   xmlns:rdf="http://www.w3.org/1999/02/22-rdf-syntax-ns#"
   xmlns:svg="http://www.w3.org/2000/svg"
   xmlns="http://www.w3.org/2000/svg"
   xmlns:sodipodi="http://sodipodi.sourceforge.net/DTD/sodipodi-0.dtd"
   xmlns:inkscape="http://www.inkscape.org/namespaces/inkscape"
   width="400"
   height="100"
   viewBox="0 0 105.83333 26.458334"
   version="1.1"
   id="svg38"
   inkscape:version="0.92.4 (5da689c313, 2019-01-14)"
   sodipodi:docname="wbnLoSm.svg">
  <defs
     id="defs32" />
  <sodipodi:namedview
     id="base"
     pagecolor="#ffffff"
     bordercolor="#666666"
     borderopacity="1.0"
     inkscape:pageopacity="0.0"
     inkscape:pageshadow="2"
     inkscape:zoom="2.2534172"
     inkscape:cx="170.64043"
     inkscape:cy="51.151579"
     inkscape:document-units="px"
     inkscape:current-layer="layer1"
     showgrid="false"
     inkscape:window-width="1309"
     inkscape:window-height="749"
     inkscape:window-x="-4"
     inkscape:window-y="-4"
     inkscape:window-maximized="1"
     units="px" />
  <metadata
     id="metadata35">
    <rdf:RDF>
      <cc:Work
         rdf:about="">
        <dc:format>image/svg+xml</dc:format>
        <dc:type
           rdf:resource="http://purl.org/dc/dcmitype/StillImage" />
        <dc:title></dc:title>
      </cc:Work>
    </rdf:RDF>
  </metadata>
  <g
     inkscape:label="Layer 1"
     inkscape:groupmode="layer"
     id="layer1"
     transform="translate(0,-270.54166)">
    <text
       xml:space="preserve"
       style="font-style:normal;font-weight:normal;font-size:9.8777771px;line-height:1.25;font-family:sans-serif;letter-spacing:0px;word-spacing:0px;fill:#53676c;fill-opacity:1;stroke:none;stroke-width:0.26458332"
       x="32.279163"
       y="147.51041"
       id="text3906" />
    <text
       xml:space="preserve"
       style="font-style:normal;font-weight:normal;font-size:6.9044652px;line-height:1.25;font-family:sans-serif;letter-spacing:0px;word-spacing:0px;fill:#ffcc00;fill-opacity:1;stroke:none;stroke-width:0.17261162"
       x="23.218241"
       y="339.83804"
       id="text13115"
       transform="scale(1.1574718,0.86395195)"><tspan
         sodipodi:role="line"
         id="tspan13113"
         x="23.218241"
         y="339.83804"
         style="font-style:normal;font-variant:normal;font-weight:normal;font-stretch:normal;font-size:48.66518784px;font-family:LilyUPC;-inkscape-font-specification:LilyUPC;fill:#ffcc00;stroke-width:0.17261162">WBN</tspan></text>
    <path
       inkscape:connector-curvature="0"
       style="fill:#ffcc00;stroke-width:0.029628"
       d="m 13.746528,270.81279 c -0.222371,0 -0.444731,0.0851 -0.615124,0.25553 l -4.0072618,4.00727 c -0.3407863,0.34078 -0.3407863,0.88953 0,1.23031 l 3.3425258,3.34253 -2.6675154,2.66752 -3.3425262,-3.34253 c -0.1703931,-0.17039 -0.3927527,-0.25561 -0.6151253,-0.25561 -0.2223721,0 -0.4448,0.0852 -0.6151932,0.25561 l -4.0072617,4.00726 c -0.3407863,0.34079 -0.3407863,0.88953 0,1.23032 l 4.0072623,4.00726 c 0.3407858,0.34079 0.8895316,0.34079 1.2303179,0 l 3.3312309,-3.33123 2.6208977,2.6209 -7.5169239,7.44806 c -0.4786477,0.47426 -0.4786477,1.23786 0,1.71212 l 0.063696,0.0631 H 22.354809 l 0.104801,-0.10385 c 0.478647,-0.47427 0.478647,-1.23786 0,-1.71212 l -7.426279,-7.3583 2.670919,-2.67093 3.362942,3.36294 c 0.340785,0.3408 0.88953,0.3408 1.230318,0 l 4.007261,-4.00725 c 0.340788,-0.34078 0.340788,-0.88954 0,-1.23032 l -4.007261,-4.00726 c -0.170394,-0.17039 -0.392821,-0.25554 -0.615194,-0.25554 -0.222373,0 -0.444731,0.0852 -0.615124,0.25554 l -3.343548,3.34355 -2.698207,-2.69821 3.343547,-3.34355 c 0.340787,-0.34078 0.340787,-0.88953 0,-1.23031 l -4.007262,-4.00727 c -0.170393,-0.17039 -0.392821,-0.25553 -0.615194,-0.25553 z m 0.03797,2.32888 c 0.171469,0 0.342936,0.0657 0.474324,0.19709 l 1.819312,1.81931 c 0.262776,0.26277 0.262776,0.68587 0,0.94865 l -1.858237,1.85823 c -0.262777,0.26278 -0.685873,0.26278 -0.94865,0 l -1.819312,-1.81931 c -0.262775,-0.26278 -0.262775,-0.68587 0,-0.94865 l 1.858238,-1.85823 c 0.131388,-0.1314 0.302856,-0.19709 0.474325,-0.19709 z m -7.8965208,7.89598 c 0.1714682,0 0.3429365,0.0657 0.4743247,0.19708 l 1.8193117,1.81931 c 0.2627762,0.26278 0.2627762,0.68588 0,0.94865 l -1.8582373,1.85824 c -0.2627761,0.26277 -0.685874,0.26277 -0.9486495,0 l -1.8193116,-1.81931 c -0.2627761,-0.26278 -0.2627761,-0.68588 0,-0.94865 l 1.8582372,-1.85824 c 0.1313878,-0.13139 0.302856,-0.19708 0.4743248,-0.19708 z m 15.8066528,0 c 0.171469,0 0.342937,0.0657 0.474324,0.19708 l 1.819312,1.81931 c 0.262776,0.26278 0.262776,0.68588 0,0.94865 l -1.858237,1.85824 c -0.262776,0.26277 -0.685874,0.26277 -0.948649,0 l -1.819311,-1.81931 c -0.262776,-0.26278 -0.262776,-0.68588 0,-0.94865 l 1.858237,-1.85824 c 0.131387,-0.13139 0.302856,-0.19708 0.474324,-0.19708 z m -7.948106,0.0285 c 0.171469,0 0.342937,0.0657 0.474326,0.19708 l 1.819311,1.81932 c 0.262776,0.26277 0.262776,0.68588 0,0.94864 l -1.858238,1.85825 c -0.262776,0.26277 -0.685873,0.26277 -0.948649,0 l -1.819311,-1.81932 c -0.262776,-0.26277 -0.262776,-0.68587 0,-0.94864 l 1.858237,-1.85825 c 0.131388,-0.13138 0.302856,-0.19708 0.474324,-0.19708 z m -0.0077,8.5401 c 0.164986,0 0.330004,0.0603 0.456427,0.18102 l 4.172766,3.98289 c 0.252843,0.24134 0.252843,0.62988 0,0.87122 l -0.05532,0.0529 H 9.1215551 l -0.033687,-0.0321 c -0.2528432,-0.24134 -0.2528432,-0.62986 0,-0.87121 l 4.1945419,-4.00365 c 0.12642,-0.12067 0.291371,-0.18102 0.456358,-0.18102 z"
       id="rect101-7-2-2" />
  </g>
</svg>